<?xml version="1.0" encoding="UTF-8"?><svg xmlns="http://www.w3.org/2000/svg" xmlns:xlink="http://www.w3.org/1999/xlink" stroke-dasharray="none" shape-rendering="auto" font-family="'Dialog'" width="700" text-rendering="auto" fill-opacity="1" contentScriptType="text/ecmascript" color-interpolation="auto" color-rendering="auto" preserveAspectRatio="xMidYMid meet" font-size="12" fill="black" stroke="black" image-rendering="auto" stroke-miterlimit="10" zoomAndPan="magnify" version="1.0" stroke-linecap="square" stroke-linejoin="miter" contentStyleType="text/css" font-style="normal" height="520" stroke-width="1" stroke-dashoffset="0" font-weight="normal" stroke-opacity="1">
    <!--Generated by the Batik Graphics2D SVG Generator-->
    <defs id="genericDefs"/>
    <g>
        <defs id="defs1">
            <clipPath clipPathUnits="userSpaceOnUse" id="clipPath1">
                <path d="M54 47 L665 47 L665 473 L54 473 L54 47 Z"/>
            </clipPath>
            <clipPath clipPathUnits="userSpaceOnUse" id="clipPath2">
                <path d="M-1 -1 L701 -1 L701 521 L-1 521 L-1 -1 Z"/>
            </clipPath>
        </defs>
        <g font-size="14" fill="white" text-rendering="geometricPrecision" font-family="'Ubuntu'" stroke-linejoin="round" stroke="white" stroke-width="0" stroke-miterlimit="0">
            <rect x="55" y="48" clip-path="url(#clipPath1)" width="609" height="424" stroke="none"/>
        </g>
        <g stroke-linecap="butt" font-size="14" fill="rgb(204,204,204)" text-rendering="geometricPrecision" font-family="'Ubuntu'" stroke-dasharray="3,3" stroke="rgb(204,204,204)">
            <line clip-path="url(#clipPath1)" fill="none" x1="55" x2="55" y1="48" y2="472"/>
            <line clip-path="url(#clipPath1)" fill="none" x1="105" x2="105" y1="48" y2="472"/>
            <line clip-path="url(#clipPath1)" fill="none" x1="156" x2="156" y1="48" y2="472"/>
            <line clip-path="url(#clipPath1)" fill="none" x1="207" x2="207" y1="48" y2="472"/>
            <line clip-path="url(#clipPath1)" fill="none" x1="258" x2="258" y1="48" y2="472"/>
            <line clip-path="url(#clipPath1)" fill="none" x1="308" x2="308" y1="48" y2="472"/>
            <line clip-path="url(#clipPath1)" fill="none" x1="359" x2="359" y1="48" y2="472"/>
            <line clip-path="url(#clipPath1)" fill="none" x1="410" x2="410" y1="48" y2="472"/>
            <line clip-path="url(#clipPath1)" fill="none" x1="461" x2="461" y1="48" y2="472"/>
            <line clip-path="url(#clipPath1)" fill="none" x1="511" x2="511" y1="48" y2="472"/>
            <line clip-path="url(#clipPath1)" fill="none" x1="562" x2="562" y1="48" y2="472"/>
            <line clip-path="url(#clipPath1)" fill="none" x1="613" x2="613" y1="48" y2="472"/>
            <line clip-path="url(#clipPath1)" fill="none" x1="55" x2="664" y1="471" y2="471"/>
            <line clip-path="url(#clipPath1)" fill="none" x1="55" x2="664" y1="369" y2="369"/>
            <line clip-path="url(#clipPath1)" fill="none" x1="55" x2="664" y1="266" y2="266"/>
            <line clip-path="url(#clipPath1)" fill="none" x1="55" x2="664" y1="164" y2="164"/>
            <line clip-path="url(#clipPath1)" fill="none" x1="55" x2="664" y1="61" y2="61"/>
            <rect x="73" y="421" clip-path="url(#clipPath1)" fill="rgb(0,0,139)" width="5" height="5" stroke="none"/>
            <line clip-path="url(#clipPath1)" fill="none" x1="75" x2="85" y1="423" y2="371" stroke-dasharray="none" stroke="rgb(0,0,139)"/>
            <rect x="83" y="369" clip-path="url(#clipPath1)" fill="rgb(0,0,139)" width="5" stroke-dasharray="none" height="5" stroke="none"/>
            <line clip-path="url(#clipPath1)" fill="none" x1="85" x2="95" y1="371" y2="319" stroke-dasharray="none" stroke="rgb(0,0,139)"/>
            <rect x="93" y="317" clip-path="url(#clipPath1)" fill="rgb(0,0,139)" width="5" stroke-dasharray="none" height="5" stroke="none"/>
            <line clip-path="url(#clipPath1)" fill="none" x1="95" x2="105" y1="319" y2="283" stroke-dasharray="none" stroke="rgb(0,0,139)"/>
            <rect x="103" y="281" clip-path="url(#clipPath1)" fill="rgb(0,0,139)" width="5" stroke-dasharray="none" height="5" stroke="none"/>
            <line clip-path="url(#clipPath1)" fill="none" x1="105" x2="115" y1="283" y2="235" stroke-dasharray="none" stroke="rgb(0,0,139)"/>
            <rect x="113" y="233" clip-path="url(#clipPath1)" fill="rgb(0,0,139)" width="5" stroke-dasharray="none" height="5" stroke="none"/>
            <line clip-path="url(#clipPath1)" fill="none" x1="115" x2="126" y1="235" y2="206" stroke-dasharray="none" stroke="rgb(0,0,139)"/>
            <rect x="124" y="204" clip-path="url(#clipPath1)" fill="rgb(0,0,139)" width="5" stroke-dasharray="none" height="5" stroke="none"/>
            <line clip-path="url(#clipPath1)" fill="none" x1="126" x2="136" y1="206" y2="156" stroke-dasharray="none" stroke="rgb(0,0,139)"/>
            <rect x="134" y="154" clip-path="url(#clipPath1)" fill="rgb(0,0,139)" width="5" stroke-dasharray="none" height="5" stroke="none"/>
            <line clip-path="url(#clipPath1)" fill="none" x1="136" x2="146" y1="156" y2="154" stroke-dasharray="none" stroke="rgb(0,0,139)"/>
            <rect x="144" y="152" clip-path="url(#clipPath1)" fill="rgb(0,0,139)" width="5" stroke-dasharray="none" height="5" stroke="none"/>
            <line clip-path="url(#clipPath1)" fill="none" x1="146" x2="156" y1="154" y2="175" stroke-dasharray="none" stroke="rgb(0,0,139)"/>
            <rect x="154" y="173" clip-path="url(#clipPath1)" fill="rgb(0,0,139)" width="5" stroke-dasharray="none" height="5" stroke="none"/>
            <line clip-path="url(#clipPath1)" fill="none" x1="156" x2="166" y1="175" y2="176" stroke-dasharray="none" stroke="rgb(0,0,139)"/>
            <rect x="164" y="174" clip-path="url(#clipPath1)" fill="rgb(0,0,139)" width="5" stroke-dasharray="none" height="5" stroke="none"/>
            <line clip-path="url(#clipPath1)" fill="none" x1="166" x2="176" y1="176" y2="189" stroke-dasharray="none" stroke="rgb(0,0,139)"/>
            <rect x="174" y="187" clip-path="url(#clipPath1)" fill="rgb(0,0,139)" width="5" stroke-dasharray="none" height="5" stroke="none"/>
            <line clip-path="url(#clipPath1)" fill="none" x1="176" x2="186" y1="189" y2="281" stroke-dasharray="none" stroke="rgb(0,0,139)"/>
            <rect x="184" y="279" clip-path="url(#clipPath1)" fill="rgb(0,0,139)" width="5" stroke-dasharray="none" height="5" stroke="none"/>
            <line clip-path="url(#clipPath1)" fill="none" x1="186" x2="197" y1="281" y2="373" stroke-dasharray="none" stroke="rgb(0,0,139)"/>
            <rect x="195" y="371" clip-path="url(#clipPath1)" fill="rgb(0,0,139)" width="5" stroke-dasharray="none" height="5" stroke="none"/>
            <line clip-path="url(#clipPath1)" fill="none" x1="197" x2="207" y1="373" y2="402" stroke-dasharray="none" stroke="rgb(0,0,139)"/>
            <rect x="205" y="400" clip-path="url(#clipPath1)" fill="rgb(0,0,139)" width="5" stroke-dasharray="none" height="5" stroke="none"/>
            <line clip-path="url(#clipPath1)" fill="none" x1="207" x2="217" y1="402" y2="352" stroke-dasharray="none" stroke="rgb(0,0,139)"/>
            <rect x="215" y="350" clip-path="url(#clipPath1)" fill="rgb(0,0,139)" width="5" stroke-dasharray="none" height="5" stroke="none"/>
            <line clip-path="url(#clipPath1)" fill="none" x1="217" x2="227" y1="352" y2="311" stroke-dasharray="none" stroke="rgb(0,0,139)"/>
            <rect x="225" y="309" clip-path="url(#clipPath1)" fill="rgb(0,0,139)" width="5" stroke-dasharray="none" height="5" stroke="none"/>
            <line clip-path="url(#clipPath1)" fill="none" x1="227" x2="237" y1="311" y2="277" stroke-dasharray="none" stroke="rgb(0,0,139)"/>
            <rect x="235" y="275" clip-path="url(#clipPath1)" fill="rgb(0,0,139)" width="5" stroke-dasharray="none" height="5" stroke="none"/>
            <line clip-path="url(#clipPath1)" fill="none" x1="237" x2="247" y1="277" y2="247" stroke-dasharray="none" stroke="rgb(0,0,139)"/>
            <rect x="245" y="245" clip-path="url(#clipPath1)" fill="rgb(0,0,139)" width="5" stroke-dasharray="none" height="5" stroke="none"/>
            <line clip-path="url(#clipPath1)" fill="none" x1="247" x2="258" y1="247" y2="201" stroke-dasharray="none" stroke="rgb(0,0,139)"/>
            <rect x="256" y="199" clip-path="url(#clipPath1)" fill="rgb(0,0,139)" width="5" stroke-dasharray="none" height="5" stroke="none"/>
            <line clip-path="url(#clipPath1)" fill="none" x1="258" x2="268" y1="201" y2="168" stroke-dasharray="none" stroke="rgb(0,0,139)"/>
            <rect x="266" y="166" clip-path="url(#clipPath1)" fill="rgb(0,0,139)" width="5" stroke-dasharray="none" height="5" stroke="none"/>
            <line clip-path="url(#clipPath1)" fill="none" x1="268" x2="278" y1="168" y2="154" stroke-dasharray="none" stroke="rgb(0,0,139)"/>
            <rect x="276" y="152" clip-path="url(#clipPath1)" fill="rgb(0,0,139)" width="5" stroke-dasharray="none" height="5" stroke="none"/>
            <line clip-path="url(#clipPath1)" fill="none" x1="278" x2="288" y1="154" y2="237" stroke-dasharray="none" stroke="rgb(0,0,139)"/>
            <rect x="286" y="235" clip-path="url(#clipPath1)" fill="rgb(0,0,139)" width="5" stroke-dasharray="none" height="5" stroke="none"/>
            <line clip-path="url(#clipPath1)" fill="none" x1="288" x2="298" y1="237" y2="290" stroke-dasharray="none" stroke="rgb(0,0,139)"/>
            <rect x="296" y="288" clip-path="url(#clipPath1)" fill="rgb(0,0,139)" width="5" stroke-dasharray="none" height="5" stroke="none"/>
            <line clip-path="url(#clipPath1)" fill="none" x1="298" x2="308" y1="290" y2="383" stroke-dasharray="none" stroke="rgb(0,0,139)"/>
            <rect x="306" y="381" clip-path="url(#clipPath1)" fill="rgb(0,0,139)" width="5" stroke-dasharray="none" height="5" stroke="none"/>
            <line clip-path="url(#clipPath1)" fill="none" x1="308" x2="318" y1="383" y2="350" stroke-dasharray="none" stroke="rgb(0,0,139)"/>
            <rect x="316" y="348" clip-path="url(#clipPath1)" fill="rgb(0,0,139)" width="5" stroke-dasharray="none" height="5" stroke="none"/>
            <line clip-path="url(#clipPath1)" fill="none" x1="318" x2="329" y1="350" y2="313" stroke-dasharray="none" stroke="rgb(0,0,139)"/>
            <rect x="327" y="311" clip-path="url(#clipPath1)" fill="rgb(0,0,139)" width="5" stroke-dasharray="none" height="5" stroke="none"/>
            <line clip-path="url(#clipPath1)" fill="none" x1="329" x2="339" y1="313" y2="266" stroke-dasharray="none" stroke="rgb(0,0,139)"/>
            <rect x="337" y="264" clip-path="url(#clipPath1)" fill="rgb(0,0,139)" width="5" stroke-dasharray="none" height="5" stroke="none"/>
            <line clip-path="url(#clipPath1)" fill="none" x1="339" x2="349" y1="266" y2="235" stroke-dasharray="none" stroke="rgb(0,0,139)"/>
            <rect x="347" y="233" clip-path="url(#clipPath1)" fill="rgb(0,0,139)" width="5" stroke-dasharray="none" height="5" stroke="none"/>
            <line clip-path="url(#clipPath1)" fill="none" x1="349" x2="359" y1="235" y2="204" stroke-dasharray="none" stroke="rgb(0,0,139)"/>
            <rect x="357" y="202" clip-path="url(#clipPath1)" fill="rgb(0,0,139)" width="5" stroke-dasharray="none" height="5" stroke="none"/>
            <line clip-path="url(#clipPath1)" fill="none" x1="359" x2="369" y1="204" y2="179" stroke-dasharray="none" stroke="rgb(0,0,139)"/>
            <rect x="367" y="177" clip-path="url(#clipPath1)" fill="rgb(0,0,139)" width="5" stroke-dasharray="none" height="5" stroke="none"/>
            <line clip-path="url(#clipPath1)" fill="none" x1="369" x2="379" y1="179" y2="179" stroke-dasharray="none" stroke="rgb(0,0,139)"/>
            <rect x="377" y="177" clip-path="url(#clipPath1)" fill="rgb(0,0,139)" width="5" stroke-dasharray="none" height="5" stroke="none"/>
            <line clip-path="url(#clipPath1)" fill="none" x1="379" x2="389" y1="179" y2="165" stroke-dasharray="none" stroke="rgb(0,0,139)"/>
            <rect x="387" y="163" clip-path="url(#clipPath1)" fill="rgb(0,0,139)" width="5" stroke-dasharray="none" height="5" stroke="none"/>
            <line clip-path="url(#clipPath1)" fill="none" x1="389" x2="400" y1="165" y2="170" stroke-dasharray="none" stroke="rgb(0,0,139)"/>
            <rect x="398" y="168" clip-path="url(#clipPath1)" fill="rgb(0,0,139)" width="5" stroke-dasharray="none" height="5" stroke="none"/>
            <line clip-path="url(#clipPath1)" fill="none" x1="400" x2="410" y1="170" y2="177" stroke-dasharray="none" stroke="rgb(0,0,139)"/>
            <rect x="408" y="175" clip-path="url(#clipPath1)" fill="rgb(0,0,139)" width="5" stroke-dasharray="none" height="5" stroke="none"/>
            <line clip-path="url(#clipPath1)" fill="none" x1="410" x2="420" y1="177" y2="257" stroke-dasharray="none" stroke="rgb(0,0,139)"/>
            <rect x="418" y="255" clip-path="url(#clipPath1)" fill="rgb(0,0,139)" width="5" stroke-dasharray="none" height="5" stroke="none"/>
            <line clip-path="url(#clipPath1)" fill="none" x1="420" x2="430" y1="257" y2="329" stroke-dasharray="none" stroke="rgb(0,0,139)"/>
            <rect x="428" y="327" clip-path="url(#clipPath1)" fill="rgb(0,0,139)" width="5" stroke-dasharray="none" height="5" stroke="none"/>
            <line clip-path="url(#clipPath1)" fill="none" x1="430" x2="440" y1="329" y2="377" stroke-dasharray="none" stroke="rgb(0,0,139)"/>
            <rect x="438" y="375" clip-path="url(#clipPath1)" fill="rgb(0,0,139)" width="5" stroke-dasharray="none" height="5" stroke="none"/>
            <line clip-path="url(#clipPath1)" fill="none" x1="440" x2="450" y1="377" y2="337" stroke-dasharray="none" stroke="rgb(0,0,139)"/>
            <rect x="448" y="335" clip-path="url(#clipPath1)" fill="rgb(0,0,139)" width="5" stroke-dasharray="none" height="5" stroke="none"/>
            <line clip-path="url(#clipPath1)" fill="none" x1="450" x2="461" y1="337" y2="308" stroke-dasharray="none" stroke="rgb(0,0,139)"/>
            <rect x="459" y="306" clip-path="url(#clipPath1)" fill="rgb(0,0,139)" width="5" stroke-dasharray="none" height="5" stroke="none"/>
            <line clip-path="url(#clipPath1)" fill="none" x1="461" x2="471" y1="308" y2="276" stroke-dasharray="none" stroke="rgb(0,0,139)"/>
            <rect x="469" y="274" clip-path="url(#clipPath1)" fill="rgb(0,0,139)" width="5" stroke-dasharray="none" height="5" stroke="none"/>
            <line clip-path="url(#clipPath1)" fill="none" x1="471" x2="481" y1="276" y2="240" stroke-dasharray="none" stroke="rgb(0,0,139)"/>
            <rect x="479" y="238" clip-path="url(#clipPath1)" fill="rgb(0,0,139)" width="5" stroke-dasharray="none" height="5" stroke="none"/>
            <line clip-path="url(#clipPath1)" fill="none" x1="481" x2="491" y1="240" y2="210" stroke-dasharray="none" stroke="rgb(0,0,139)"/>
            <rect x="489" y="208" clip-path="url(#clipPath1)" fill="rgb(0,0,139)" width="5" stroke-dasharray="none" height="5" stroke="none"/>
            <line clip-path="url(#clipPath1)" fill="none" x1="491" x2="501" y1="210" y2="166" stroke-dasharray="none" stroke="rgb(0,0,139)"/>
            <rect x="499" y="164" clip-path="url(#clipPath1)" fill="rgb(0,0,139)" width="5" stroke-dasharray="none" height="5" stroke="none"/>
            <line clip-path="url(#clipPath1)" fill="none" x1="501" x2="511" y1="166" y2="157" stroke-dasharray="none" stroke="rgb(0,0,139)"/>
            <rect x="509" y="155" clip-path="url(#clipPath1)" fill="rgb(0,0,139)" width="5" stroke-dasharray="none" height="5" stroke="none"/>
            <line clip-path="url(#clipPath1)" fill="none" x1="511" x2="521" y1="157" y2="233" stroke-dasharray="none" stroke="rgb(0,0,139)"/>
            <rect x="519" y="231" clip-path="url(#clipPath1)" fill="rgb(0,0,139)" width="5" stroke-dasharray="none" height="5" stroke="none"/>
            <line clip-path="url(#clipPath1)" fill="none" x1="521" x2="532" y1="233" y2="321" stroke-dasharray="none" stroke="rgb(0,0,139)"/>
            <rect x="530" y="319" clip-path="url(#clipPath1)" fill="rgb(0,0,139)" width="5" stroke-dasharray="none" height="5" stroke="none"/>
            <line clip-path="url(#clipPath1)" fill="none" x1="532" x2="542" y1="321" y2="384" stroke-dasharray="none" stroke="rgb(0,0,139)"/>
            <rect x="540" y="382" clip-path="url(#clipPath1)" fill="rgb(0,0,139)" width="5" stroke-dasharray="none" height="5" stroke="none"/>
            <line clip-path="url(#clipPath1)" fill="none" x1="542" x2="552" y1="384" y2="353" stroke-dasharray="none" stroke="rgb(0,0,139)"/>
            <rect x="550" y="351" clip-path="url(#clipPath1)" fill="rgb(0,0,139)" width="5" stroke-dasharray="none" height="5" stroke="none"/>
            <line clip-path="url(#clipPath1)" fill="none" x1="552" x2="562" y1="353" y2="321" stroke-dasharray="none" stroke="rgb(0,0,139)"/>
            <rect x="560" y="319" clip-path="url(#clipPath1)" fill="rgb(0,0,139)" width="5" stroke-dasharray="none" height="5" stroke="none"/>
            <line clip-path="url(#clipPath1)" fill="none" x1="562" x2="572" y1="321" y2="273" stroke-dasharray="none" stroke="rgb(0,0,139)"/>
            <rect x="570" y="271" clip-path="url(#clipPath1)" fill="rgb(0,0,139)" width="5" stroke-dasharray="none" height="5" stroke="none"/>
            <line clip-path="url(#clipPath1)" fill="none" x1="572" x2="582" y1="273" y2="235" stroke-dasharray="none" stroke="rgb(0,0,139)"/>
            <rect x="580" y="233" clip-path="url(#clipPath1)" fill="rgb(0,0,139)" width="5" stroke-dasharray="none" height="5" stroke="none"/>
            <line clip-path="url(#clipPath1)" fill="none" x1="582" x2="592" y1="235" y2="183" stroke-dasharray="none" stroke="rgb(0,0,139)"/>
            <rect x="590" y="181" clip-path="url(#clipPath1)" fill="rgb(0,0,139)" width="5" stroke-dasharray="none" height="5" stroke="none"/>
            <line clip-path="url(#clipPath1)" fill="none" x1="592" x2="603" y1="183" y2="156" stroke-dasharray="none" stroke="rgb(0,0,139)"/>
            <rect x="601" y="154" clip-path="url(#clipPath1)" fill="rgb(0,0,139)" width="5" stroke-dasharray="none" height="5" stroke="none"/>
            <line clip-path="url(#clipPath1)" fill="none" x1="603" x2="613" y1="156" y2="175" stroke-dasharray="none" stroke="rgb(0,0,139)"/>
            <rect x="611" y="173" clip-path="url(#clipPath1)" fill="rgb(0,0,139)" width="5" stroke-dasharray="none" height="5" stroke="none"/>
            <line clip-path="url(#clipPath1)" fill="none" x1="613" x2="623" y1="175" y2="178" stroke-dasharray="none" stroke="rgb(0,0,139)"/>
            <rect x="621" y="176" clip-path="url(#clipPath1)" fill="rgb(0,0,139)" width="5" stroke-dasharray="none" height="5" stroke="none"/>
            <line clip-path="url(#clipPath1)" fill="none" x1="623" x2="633" y1="178" y2="154" stroke-dasharray="none" stroke="rgb(0,0,139)"/>
            <rect x="631" y="152" clip-path="url(#clipPath1)" fill="rgb(0,0,139)" width="5" stroke-dasharray="none" height="5" stroke="none"/>
            <line clip-path="url(#clipPath1)" fill="none" x1="633" x2="643" y1="154" y2="190" stroke-dasharray="none" stroke="rgb(0,0,139)"/>
            <rect x="641" y="188" clip-path="url(#clipPath1)" fill="rgb(0,0,139)" width="5" stroke-dasharray="none" height="5" stroke="none"/>
            <line clip-path="url(#clipPath1)" fill="none" x1="643" x2="653" y1="190" y2="253" stroke-dasharray="none" stroke="rgb(0,0,139)"/>
            <rect x="651" y="251" clip-path="url(#clipPath1)" fill="rgb(0,0,139)" width="5" stroke-dasharray="none" height="5" stroke="none"/>
            <line clip-path="url(#clipPath1)" fill="none" x1="653" x2="664" y1="253" y2="345" stroke-dasharray="none" stroke="rgb(0,0,139)"/>
            <rect x="662" y="343" clip-path="url(#clipPath1)" fill="rgb(0,0,139)" width="5" stroke-dasharray="none" height="5" stroke="none"/>
            <line clip-path="url(#clipPath1)" fill="none" x1="664" x2="674" y1="345" y2="382" stroke-dasharray="none" stroke="rgb(0,0,139)"/>
            <rect x="672" y="380" clip-path="url(#clipPath1)" fill="rgb(0,0,139)" width="5" stroke-dasharray="none" height="5" stroke="none"/>
            <rect x="55" y="48" clip-path="url(#clipPath2)" fill="none" width="609" stroke-dasharray="none" height="424" stroke="black"/>
        </g>
        <g text-rendering="geometricPrecision" font-size="16" stroke-linecap="butt">
            <text xml:space="preserve" x="208" y="15" clip-path="url(#clipPath2)" stroke="none">Speed of Vehicle on Smoothed Ring</text>
            <line clip-path="url(#clipPath2)" fill="none" x1="55" x2="664" y1="46" y2="46"/>
            <line clip-path="url(#clipPath2)" fill="none" x1="55" x2="664" y1="474" y2="474"/>
            <text xml:space="preserve" x="327" y="516" clip-path="url(#clipPath2)" stroke="none">Time (s)</text>
            <line clip-path="url(#clipPath2)" fill="none" x1="55" x2="55" y1="42" y2="46"/>
            <line clip-path="url(#clipPath2)" fill="none" x1="55" x2="55" y1="478" y2="474"/>
            <text xml:space="preserve" x="52" y="37" clip-path="url(#clipPath2)" stroke="none">0</text>
            <text xml:space="preserve" x="52" y="494" clip-path="url(#clipPath2)" stroke="none">0</text>
            <line clip-path="url(#clipPath2)" fill="none" x1="65" x2="65" y1="44" y2="46"/>
            <line clip-path="url(#clipPath2)" fill="none" x1="65" x2="65" y1="476" y2="474"/>
            <line clip-path="url(#clipPath2)" fill="none" x1="75" x2="75" y1="44" y2="46"/>
            <line clip-path="url(#clipPath2)" fill="none" x1="75" x2="75" y1="476" y2="474"/>
            <line clip-path="url(#clipPath2)" fill="none" x1="85" x2="85" y1="44" y2="46"/>
            <line clip-path="url(#clipPath2)" fill="none" x1="85" x2="85" y1="476" y2="474"/>
            <line clip-path="url(#clipPath2)" fill="none" x1="95" x2="95" y1="44" y2="46"/>
            <line clip-path="url(#clipPath2)" fill="none" x1="95" x2="95" y1="476" y2="474"/>
            <line clip-path="url(#clipPath2)" fill="none" x1="105" x2="105" y1="42" y2="46"/>
            <line clip-path="url(#clipPath2)" fill="none" x1="105" x2="105" y1="478" y2="474"/>
            <text xml:space="preserve" x="102" y="37" clip-path="url(#clipPath2)" stroke="none">5</text>
            <text xml:space="preserve" x="102" y="494" clip-path="url(#clipPath2)" stroke="none">5</text>
            <line clip-path="url(#clipPath2)" fill="none" x1="115" x2="115" y1="44" y2="46"/>
            <line clip-path="url(#clipPath2)" fill="none" x1="115" x2="115" y1="476" y2="474"/>
            <line clip-path="url(#clipPath2)" fill="none" x1="126" x2="126" y1="44" y2="46"/>
            <line clip-path="url(#clipPath2)" fill="none" x1="126" x2="126" y1="476" y2="474"/>
            <line clip-path="url(#clipPath2)" fill="none" x1="136" x2="136" y1="44" y2="46"/>
            <line clip-path="url(#clipPath2)" fill="none" x1="136" x2="136" y1="476" y2="474"/>
            <line clip-path="url(#clipPath2)" fill="none" x1="146" x2="146" y1="44" y2="46"/>
            <line clip-path="url(#clipPath2)" fill="none" x1="146" x2="146" y1="476" y2="474"/>
            <line clip-path="url(#clipPath2)" fill="none" x1="156" x2="156" y1="42" y2="46"/>
            <line clip-path="url(#clipPath2)" fill="none" x1="156" x2="156" y1="478" y2="474"/>
            <text xml:space="preserve" x="149" y="37" clip-path="url(#clipPath2)" stroke="none">10</text>
            <text xml:space="preserve" x="149" y="494" clip-path="url(#clipPath2)" stroke="none">10</text>
            <line clip-path="url(#clipPath2)" fill="none" x1="166" x2="166" y1="44" y2="46"/>
            <line clip-path="url(#clipPath2)" fill="none" x1="166" x2="166" y1="476" y2="474"/>
            <line clip-path="url(#clipPath2)" fill="none" x1="176" x2="176" y1="44" y2="46"/>
            <line clip-path="url(#clipPath2)" fill="none" x1="176" x2="176" y1="476" y2="474"/>
            <line clip-path="url(#clipPath2)" fill="none" x1="186" x2="186" y1="44" y2="46"/>
            <line clip-path="url(#clipPath2)" fill="none" x1="186" x2="186" y1="476" y2="474"/>
            <line clip-path="url(#clipPath2)" fill="none" x1="197" x2="197" y1="44" y2="46"/>
            <line clip-path="url(#clipPath2)" fill="none" x1="197" x2="197" y1="476" y2="474"/>
            <line clip-path="url(#clipPath2)" fill="none" x1="207" x2="207" y1="42" y2="46"/>
            <line clip-path="url(#clipPath2)" fill="none" x1="207" x2="207" y1="478" y2="474"/>
            <text xml:space="preserve" x="200" y="37" clip-path="url(#clipPath2)" stroke="none">15</text>
            <text xml:space="preserve" x="200" y="494" clip-path="url(#clipPath2)" stroke="none">15</text>
            <line clip-path="url(#clipPath2)" fill="none" x1="217" x2="217" y1="44" y2="46"/>
            <line clip-path="url(#clipPath2)" fill="none" x1="217" x2="217" y1="476" y2="474"/>
            <line clip-path="url(#clipPath2)" fill="none" x1="227" x2="227" y1="44" y2="46"/>
            <line clip-path="url(#clipPath2)" fill="none" x1="227" x2="227" y1="476" y2="474"/>
            <line clip-path="url(#clipPath2)" fill="none" x1="237" x2="237" y1="44" y2="46"/>
            <line clip-path="url(#clipPath2)" fill="none" x1="237" x2="237" y1="476" y2="474"/>
            <line clip-path="url(#clipPath2)" fill="none" x1="247" x2="247" y1="44" y2="46"/>
            <line clip-path="url(#clipPath2)" fill="none" x1="247" x2="247" y1="476" y2="474"/>
            <line clip-path="url(#clipPath2)" fill="none" x1="258" x2="258" y1="42" y2="46"/>
            <line clip-path="url(#clipPath2)" fill="none" x1="258" x2="258" y1="478" y2="474"/>
            <text xml:space="preserve" x="251" y="37" clip-path="url(#clipPath2)" stroke="none">20</text>
            <text xml:space="preserve" x="251" y="494" clip-path="url(#clipPath2)" stroke="none">20</text>
            <line clip-path="url(#clipPath2)" fill="none" x1="268" x2="268" y1="44" y2="46"/>
            <line clip-path="url(#clipPath2)" fill="none" x1="268" x2="268" y1="476" y2="474"/>
            <line clip-path="url(#clipPath2)" fill="none" x1="278" x2="278" y1="44" y2="46"/>
            <line clip-path="url(#clipPath2)" fill="none" x1="278" x2="278" y1="476" y2="474"/>
            <line clip-path="url(#clipPath2)" fill="none" x1="288" x2="288" y1="44" y2="46"/>
            <line clip-path="url(#clipPath2)" fill="none" x1="288" x2="288" y1="476" y2="474"/>
            <line clip-path="url(#clipPath2)" fill="none" x1="298" x2="298" y1="44" y2="46"/>
            <line clip-path="url(#clipPath2)" fill="none" x1="298" x2="298" y1="476" y2="474"/>
            <line clip-path="url(#clipPath2)" fill="none" x1="308" x2="308" y1="42" y2="46"/>
            <line clip-path="url(#clipPath2)" fill="none" x1="308" x2="308" y1="478" y2="474"/>
            <text xml:space="preserve" x="301" y="37" clip-path="url(#clipPath2)" stroke="none">25</text>
            <text xml:space="preserve" x="301" y="494" clip-path="url(#clipPath2)" stroke="none">25</text>
            <line clip-path="url(#clipPath2)" fill="none" x1="318" x2="318" y1="44" y2="46"/>
            <line clip-path="url(#clipPath2)" fill="none" x1="318" x2="318" y1="476" y2="474"/>
            <line clip-path="url(#clipPath2)" fill="none" x1="329" x2="329" y1="44" y2="46"/>
            <line clip-path="url(#clipPath2)" fill="none" x1="329" x2="329" y1="476" y2="474"/>
            <line clip-path="url(#clipPath2)" fill="none" x1="339" x2="339" y1="44" y2="46"/>
            <line clip-path="url(#clipPath2)" fill="none" x1="339" x2="339" y1="476" y2="474"/>
            <line clip-path="url(#clipPath2)" fill="none" x1="349" x2="349" y1="44" y2="46"/>
            <line clip-path="url(#clipPath2)" fill="none" x1="349" x2="349" y1="476" y2="474"/>
            <line clip-path="url(#clipPath2)" fill="none" x1="359" x2="359" y1="42" y2="46"/>
            <line clip-path="url(#clipPath2)" fill="none" x1="359" x2="359" y1="478" y2="474"/>
            <text xml:space="preserve" x="352" y="37" clip-path="url(#clipPath2)" stroke="none">30</text>
            <text xml:space="preserve" x="352" y="494" clip-path="url(#clipPath2)" stroke="none">30</text>
            <line clip-path="url(#clipPath2)" fill="none" x1="369" x2="369" y1="44" y2="46"/>
            <line clip-path="url(#clipPath2)" fill="none" x1="369" x2="369" y1="476" y2="474"/>
            <line clip-path="url(#clipPath2)" fill="none" x1="379" x2="379" y1="44" y2="46"/>
            <line clip-path="url(#clipPath2)" fill="none" x1="379" x2="379" y1="476" y2="474"/>
            <line clip-path="url(#clipPath2)" fill="none" x1="389" x2="389" y1="44" y2="46"/>
            <line clip-path="url(#clipPath2)" fill="none" x1="389" x2="389" y1="476" y2="474"/>
            <line clip-path="url(#clipPath2)" fill="none" x1="400" x2="400" y1="44" y2="46"/>
            <line clip-path="url(#clipPath2)" fill="none" x1="400" x2="400" y1="476" y2="474"/>
            <line clip-path="url(#clipPath2)" fill="none" x1="410" x2="410" y1="42" y2="46"/>
            <line clip-path="url(#clipPath2)" fill="none" x1="410" x2="410" y1="478" y2="474"/>
            <text xml:space="preserve" x="403" y="37" clip-path="url(#clipPath2)" stroke="none">35</text>
            <text xml:space="preserve" x="403" y="494" clip-path="url(#clipPath2)" stroke="none">35</text>
            <line clip-path="url(#clipPath2)" fill="none" x1="420" x2="420" y1="44" y2="46"/>
            <line clip-path="url(#clipPath2)" fill="none" x1="420" x2="420" y1="476" y2="474"/>
            <line clip-path="url(#clipPath2)" fill="none" x1="430" x2="430" y1="44" y2="46"/>
            <line clip-path="url(#clipPath2)" fill="none" x1="430" x2="430" y1="476" y2="474"/>
            <line clip-path="url(#clipPath2)" fill="none" x1="440" x2="440" y1="44" y2="46"/>
            <line clip-path="url(#clipPath2)" fill="none" x1="440" x2="440" y1="476" y2="474"/>
            <line clip-path="url(#clipPath2)" fill="none" x1="450" x2="450" y1="44" y2="46"/>
            <line clip-path="url(#clipPath2)" fill="none" x1="450" x2="450" y1="476" y2="474"/>
            <line clip-path="url(#clipPath2)" fill="none" x1="461" x2="461" y1="42" y2="46"/>
            <line clip-path="url(#clipPath2)" fill="none" x1="461" x2="461" y1="478" y2="474"/>
            <text xml:space="preserve" x="454" y="37" clip-path="url(#clipPath2)" stroke="none">40</text>
            <text xml:space="preserve" x="454" y="494" clip-path="url(#clipPath2)" stroke="none">40</text>
            <line clip-path="url(#clipPath2)" fill="none" x1="471" x2="471" y1="44" y2="46"/>
            <line clip-path="url(#clipPath2)" fill="none" x1="471" x2="471" y1="476" y2="474"/>
            <line clip-path="url(#clipPath2)" fill="none" x1="481" x2="481" y1="44" y2="46"/>
            <line clip-path="url(#clipPath2)" fill="none" x1="481" x2="481" y1="476" y2="474"/>
            <line clip-path="url(#clipPath2)" fill="none" x1="491" x2="491" y1="44" y2="46"/>
            <line clip-path="url(#clipPath2)" fill="none" x1="491" x2="491" y1="476" y2="474"/>
            <line clip-path="url(#clipPath2)" fill="none" x1="501" x2="501" y1="44" y2="46"/>
            <line clip-path="url(#clipPath2)" fill="none" x1="501" x2="501" y1="476" y2="474"/>
            <line clip-path="url(#clipPath2)" fill="none" x1="511" x2="511" y1="42" y2="46"/>
            <line clip-path="url(#clipPath2)" fill="none" x1="511" x2="511" y1="478" y2="474"/>
            <text xml:space="preserve" x="504" y="37" clip-path="url(#clipPath2)" stroke="none">45</text>
            <text xml:space="preserve" x="504" y="494" clip-path="url(#clipPath2)" stroke="none">45</text>
            <line clip-path="url(#clipPath2)" fill="none" x1="521" x2="521" y1="44" y2="46"/>
            <line clip-path="url(#clipPath2)" fill="none" x1="521" x2="521" y1="476" y2="474"/>
            <line clip-path="url(#clipPath2)" fill="none" x1="532" x2="532" y1="44" y2="46"/>
            <line clip-path="url(#clipPath2)" fill="none" x1="532" x2="532" y1="476" y2="474"/>
            <line clip-path="url(#clipPath2)" fill="none" x1="542" x2="542" y1="44" y2="46"/>
            <line clip-path="url(#clipPath2)" fill="none" x1="542" x2="542" y1="476" y2="474"/>
            <line clip-path="url(#clipPath2)" fill="none" x1="552" x2="552" y1="44" y2="46"/>
            <line clip-path="url(#clipPath2)" fill="none" x1="552" x2="552" y1="476" y2="474"/>
            <line clip-path="url(#clipPath2)" fill="none" x1="562" x2="562" y1="42" y2="46"/>
            <line clip-path="url(#clipPath2)" fill="none" x1="562" x2="562" y1="478" y2="474"/>
            <text xml:space="preserve" x="555" y="37" clip-path="url(#clipPath2)" stroke="none">50</text>
            <text xml:space="preserve" x="555" y="494" clip-path="url(#clipPath2)" stroke="none">50</text>
            <line clip-path="url(#clipPath2)" fill="none" x1="572" x2="572" y1="44" y2="46"/>
            <line clip-path="url(#clipPath2)" fill="none" x1="572" x2="572" y1="476" y2="474"/>
            <line clip-path="url(#clipPath2)" fill="none" x1="582" x2="582" y1="44" y2="46"/>
            <line clip-path="url(#clipPath2)" fill="none" x1="582" x2="582" y1="476" y2="474"/>
            <line clip-path="url(#clipPath2)" fill="none" x1="592" x2="592" y1="44" y2="46"/>
            <line clip-path="url(#clipPath2)" fill="none" x1="592" x2="592" y1="476" y2="474"/>
            <line clip-path="url(#clipPath2)" fill="none" x1="603" x2="603" y1="44" y2="46"/>
            <line clip-path="url(#clipPath2)" fill="none" x1="603" x2="603" y1="476" y2="474"/>
            <line clip-path="url(#clipPath2)" fill="none" x1="613" x2="613" y1="42" y2="46"/>
            <line clip-path="url(#clipPath2)" fill="none" x1="613" x2="613" y1="478" y2="474"/>
            <text xml:space="preserve" x="606" y="37" clip-path="url(#clipPath2)" stroke="none">55</text>
            <text xml:space="preserve" x="606" y="494" clip-path="url(#clipPath2)" stroke="none">55</text>
            <line clip-path="url(#clipPath2)" fill="none" x1="623" x2="623" y1="44" y2="46"/>
            <line clip-path="url(#clipPath2)" fill="none" x1="623" x2="623" y1="476" y2="474"/>
            <line clip-path="url(#clipPath2)" fill="none" x1="633" x2="633" y1="44" y2="46"/>
            <line clip-path="url(#clipPath2)" fill="none" x1="633" x2="633" y1="476" y2="474"/>
            <line clip-path="url(#clipPath2)" fill="none" x1="643" x2="643" y1="44" y2="46"/>
            <line clip-path="url(#clipPath2)" fill="none" x1="643" x2="643" y1="476" y2="474"/>
            <line clip-path="url(#clipPath2)" fill="none" x1="653" x2="653" y1="44" y2="46"/>
            <line clip-path="url(#clipPath2)" fill="none" x1="653" x2="653" y1="476" y2="474"/>
            <line clip-path="url(#clipPath2)" fill="none" x1="55" x2="664" y1="471" y2="471"/>
            <line clip-path="url(#clipPath2)" fill="none" x1="53" x2="53" y1="48" y2="472"/>
            <line clip-path="url(#clipPath2)" fill="none" x1="666" x2="666" y1="48" y2="472"/>
            <line clip-path="url(#clipPath2)" fill="none" x1="49" x2="53" y1="471" y2="471"/>
            <line clip-path="url(#clipPath2)" fill="none" x1="670" x2="666" y1="471" y2="471"/>
            <text xml:space="preserve" x="40" y="477" clip-path="url(#clipPath2)" stroke="none">0</text>
            <text xml:space="preserve" x="673" y="477" clip-path="url(#clipPath2)" stroke="none">0</text>
            <line clip-path="url(#clipPath2)" fill="none" x1="51" x2="53" y1="451" y2="451"/>
            <line clip-path="url(#clipPath2)" fill="none" x1="668" x2="666" y1="451" y2="451"/>
            <line clip-path="url(#clipPath2)" fill="none" x1="51" x2="53" y1="430" y2="430"/>
            <line clip-path="url(#clipPath2)" fill="none" x1="668" x2="666" y1="430" y2="430"/>
            <line clip-path="url(#clipPath2)" fill="none" x1="51" x2="53" y1="410" y2="410"/>
            <line clip-path="url(#clipPath2)" fill="none" x1="668" x2="666" y1="410" y2="410"/>
            <line clip-path="url(#clipPath2)" fill="none" x1="51" x2="53" y1="389" y2="389"/>
            <line clip-path="url(#clipPath2)" fill="none" x1="668" x2="666" y1="389" y2="389"/>
            <line clip-path="url(#clipPath2)" fill="none" x1="49" x2="53" y1="369" y2="369"/>
            <line clip-path="url(#clipPath2)" fill="none" x1="670" x2="666" y1="369" y2="369"/>
            <text xml:space="preserve" x="40" y="375" clip-path="url(#clipPath2)" stroke="none">5</text>
            <text xml:space="preserve" x="673" y="375" clip-path="url(#clipPath2)" stroke="none">5</text>
            <line clip-path="url(#clipPath2)" fill="none" x1="51" x2="53" y1="348" y2="348"/>
            <line clip-path="url(#clipPath2)" fill="none" x1="668" x2="666" y1="348" y2="348"/>
            <line clip-path="url(#clipPath2)" fill="none" x1="51" x2="53" y1="328" y2="328"/>
            <line clip-path="url(#clipPath2)" fill="none" x1="668" x2="666" y1="328" y2="328"/>
            <line clip-path="url(#clipPath2)" fill="none" x1="51" x2="53" y1="307" y2="307"/>
            <line clip-path="url(#clipPath2)" fill="none" x1="668" x2="666" y1="307" y2="307"/>
            <line clip-path="url(#clipPath2)" fill="none" x1="51" x2="53" y1="287" y2="287"/>
            <line clip-path="url(#clipPath2)" fill="none" x1="668" x2="666" y1="287" y2="287"/>
            <line clip-path="url(#clipPath2)" fill="none" x1="49" x2="53" y1="266" y2="266"/>
            <line clip-path="url(#clipPath2)" fill="none" x1="670" x2="666" y1="266" y2="266"/>
            <text xml:space="preserve" x="32" y="272" clip-path="url(#clipPath2)" stroke="none">10</text>
            <text xml:space="preserve" x="673" y="272" clip-path="url(#clipPath2)" stroke="none">10</text>
            <line clip-path="url(#clipPath2)" fill="none" x1="51" x2="53" y1="246" y2="246"/>
            <line clip-path="url(#clipPath2)" fill="none" x1="668" x2="666" y1="246" y2="246"/>
            <line clip-path="url(#clipPath2)" fill="none" x1="51" x2="53" y1="225" y2="225"/>
            <line clip-path="url(#clipPath2)" fill="none" x1="668" x2="666" y1="225" y2="225"/>
            <line clip-path="url(#clipPath2)" fill="none" x1="51" x2="53" y1="205" y2="205"/>
            <line clip-path="url(#clipPath2)" fill="none" x1="668" x2="666" y1="205" y2="205"/>
            <line clip-path="url(#clipPath2)" fill="none" x1="51" x2="53" y1="184" y2="184"/>
            <line clip-path="url(#clipPath2)" fill="none" x1="668" x2="666" y1="184" y2="184"/>
            <line clip-path="url(#clipPath2)" fill="none" x1="49" x2="53" y1="164" y2="164"/>
            <line clip-path="url(#clipPath2)" fill="none" x1="670" x2="666" y1="164" y2="164"/>
            <text xml:space="preserve" x="32" y="170" clip-path="url(#clipPath2)" stroke="none">15</text>
            <text xml:space="preserve" x="673" y="170" clip-path="url(#clipPath2)" stroke="none">15</text>
            <line clip-path="url(#clipPath2)" fill="none" x1="51" x2="53" y1="143" y2="143"/>
            <line clip-path="url(#clipPath2)" fill="none" x1="668" x2="666" y1="143" y2="143"/>
            <line clip-path="url(#clipPath2)" fill="none" x1="51" x2="53" y1="123" y2="123"/>
            <line clip-path="url(#clipPath2)" fill="none" x1="668" x2="666" y1="123" y2="123"/>
            <line clip-path="url(#clipPath2)" fill="none" x1="51" x2="53" y1="102" y2="102"/>
            <line clip-path="url(#clipPath2)" fill="none" x1="668" x2="666" y1="102" y2="102"/>
            <line clip-path="url(#clipPath2)" fill="none" x1="51" x2="53" y1="82" y2="82"/>
            <line clip-path="url(#clipPath2)" fill="none" x1="668" x2="666" y1="82" y2="82"/>
            <line clip-path="url(#clipPath2)" fill="none" x1="49" x2="53" y1="61" y2="61"/>
            <line clip-path="url(#clipPath2)" fill="none" x1="670" x2="666" y1="61" y2="61"/>
            <text xml:space="preserve" x="32" y="67" clip-path="url(#clipPath2)" stroke="none">20</text>
            <text xml:space="preserve" x="673" y="67" clip-path="url(#clipPath2)" stroke="none">20</text>
        </g>
    </g>
</svg>
