<?xml version="1.0" encoding="UTF-8"?><svg xmlns="http://www.w3.org/2000/svg" xmlns:xlink="http://www.w3.org/1999/xlink" stroke-dasharray="none" shape-rendering="auto" font-family="'Dialog'" width="589" text-rendering="auto" fill-opacity="1" contentScriptType="text/ecmascript" color-interpolation="auto" color-rendering="auto" preserveAspectRatio="xMidYMid meet" font-size="12" fill="black" stroke="black" image-rendering="auto" stroke-miterlimit="10" zoomAndPan="magnify" version="1.0" stroke-linecap="square" stroke-linejoin="miter" contentStyleType="text/css" font-style="normal" height="520" stroke-width="1" stroke-dashoffset="0" font-weight="normal" stroke-opacity="1">
    <!--Generated by the Batik Graphics2D SVG Generator-->
    <defs id="genericDefs"/>
    <g>
        <defs id="defs1">
            <clipPath clipPathUnits="userSpaceOnUse" id="clipPath1">
                <path d="M44 41 L564 41 L564 479 L44 479 L44 41 Z"/>
            </clipPath>
            <clipPath clipPathUnits="userSpaceOnUse" id="clipPath2">
                <path d="M-1 -1 L590 -1 L590 521 L-1 521 L-1 -1 Z"/>
            </clipPath>
        </defs>
        <g font-size="14" fill="white" text-rendering="geometricPrecision" font-family="'Ubuntu'" stroke-linejoin="round" stroke="white" stroke-width="0" stroke-miterlimit="0">
            <rect x="45" y="42" clip-path="url(#clipPath1)" width="518" height="436" stroke="none"/>
        </g>
        <g stroke-linecap="butt" font-size="14" fill="rgb(204,204,204)" text-rendering="geometricPrecision" font-family="'Ubuntu'" stroke-dasharray="3,3" stroke="rgb(204,204,204)">
            <line clip-path="url(#clipPath1)" fill="none" x1="45" x2="45" y1="42" y2="478"/>
            <line clip-path="url(#clipPath1)" fill="none" x1="131" x2="131" y1="42" y2="478"/>
            <line clip-path="url(#clipPath1)" fill="none" x1="217" x2="217" y1="42" y2="478"/>
            <line clip-path="url(#clipPath1)" fill="none" x1="304" x2="304" y1="42" y2="478"/>
            <line clip-path="url(#clipPath1)" fill="none" x1="390" x2="390" y1="42" y2="478"/>
            <line clip-path="url(#clipPath1)" fill="none" x1="476" x2="476" y1="42" y2="478"/>
            <line clip-path="url(#clipPath1)" fill="none" x1="45" x2="563" y1="478" y2="478"/>
            <line clip-path="url(#clipPath1)" fill="none" x1="45" x2="563" y1="372" y2="372"/>
            <line clip-path="url(#clipPath1)" fill="none" x1="45" x2="563" y1="266" y2="266"/>
            <line clip-path="url(#clipPath1)" fill="none" x1="45" x2="563" y1="161" y2="161"/>
            <line clip-path="url(#clipPath1)" fill="none" x1="45" x2="563" y1="55" y2="55"/>
            <rect x="60" y="426" clip-path="url(#clipPath1)" fill="rgb(0,0,139)" width="5" height="5" stroke="none"/>
            <line clip-path="url(#clipPath1)" fill="none" x1="62" x2="70" y1="428" y2="375" stroke-dasharray="none" stroke="rgb(0,0,139)"/>
            <rect x="68" y="373" clip-path="url(#clipPath1)" fill="rgb(0,0,139)" width="5" stroke-dasharray="none" height="5" stroke="none"/>
            <line clip-path="url(#clipPath1)" fill="none" x1="70" x2="79" y1="375" y2="320" stroke-dasharray="none" stroke="rgb(0,0,139)"/>
            <rect x="77" y="318" clip-path="url(#clipPath1)" fill="rgb(0,0,139)" width="5" stroke-dasharray="none" height="5" stroke="none"/>
            <line clip-path="url(#clipPath1)" fill="none" x1="79" x2="88" y1="320" y2="284" stroke-dasharray="none" stroke="rgb(0,0,139)"/>
            <rect x="86" y="282" clip-path="url(#clipPath1)" fill="rgb(0,0,139)" width="5" stroke-dasharray="none" height="5" stroke="none"/>
            <line clip-path="url(#clipPath1)" fill="none" x1="88" x2="96" y1="284" y2="234" stroke-dasharray="none" stroke="rgb(0,0,139)"/>
            <rect x="94" y="232" clip-path="url(#clipPath1)" fill="rgb(0,0,139)" width="5" stroke-dasharray="none" height="5" stroke="none"/>
            <line clip-path="url(#clipPath1)" fill="none" x1="96" x2="105" y1="234" y2="205" stroke-dasharray="none" stroke="rgb(0,0,139)"/>
            <rect x="103" y="203" clip-path="url(#clipPath1)" fill="rgb(0,0,139)" width="5" stroke-dasharray="none" height="5" stroke="none"/>
            <line clip-path="url(#clipPath1)" fill="none" x1="105" x2="114" y1="205" y2="153" stroke-dasharray="none" stroke="rgb(0,0,139)"/>
            <rect x="112" y="151" clip-path="url(#clipPath1)" fill="rgb(0,0,139)" width="5" stroke-dasharray="none" height="5" stroke="none"/>
            <line clip-path="url(#clipPath1)" fill="none" x1="114" x2="122" y1="153" y2="151" stroke-dasharray="none" stroke="rgb(0,0,139)"/>
            <rect x="120" y="149" clip-path="url(#clipPath1)" fill="rgb(0,0,139)" width="5" stroke-dasharray="none" height="5" stroke="none"/>
            <line clip-path="url(#clipPath1)" fill="none" x1="122" x2="131" y1="151" y2="173" stroke-dasharray="none" stroke="rgb(0,0,139)"/>
            <rect x="129" y="171" clip-path="url(#clipPath1)" fill="rgb(0,0,139)" width="5" stroke-dasharray="none" height="5" stroke="none"/>
            <line clip-path="url(#clipPath1)" fill="none" x1="131" x2="139" y1="173" y2="174" stroke-dasharray="none" stroke="rgb(0,0,139)"/>
            <rect x="137" y="172" clip-path="url(#clipPath1)" fill="rgb(0,0,139)" width="5" stroke-dasharray="none" height="5" stroke="none"/>
            <line clip-path="url(#clipPath1)" fill="none" x1="139" x2="148" y1="174" y2="187" stroke-dasharray="none" stroke="rgb(0,0,139)"/>
            <rect x="146" y="185" clip-path="url(#clipPath1)" fill="rgb(0,0,139)" width="5" stroke-dasharray="none" height="5" stroke="none"/>
            <line clip-path="url(#clipPath1)" fill="none" x1="148" x2="157" y1="187" y2="282" stroke-dasharray="none" stroke="rgb(0,0,139)"/>
            <rect x="155" y="280" clip-path="url(#clipPath1)" fill="rgb(0,0,139)" width="5" stroke-dasharray="none" height="5" stroke="none"/>
            <line clip-path="url(#clipPath1)" fill="none" x1="157" x2="165" y1="282" y2="376" stroke-dasharray="none" stroke="rgb(0,0,139)"/>
            <rect x="163" y="374" clip-path="url(#clipPath1)" fill="rgb(0,0,139)" width="5" stroke-dasharray="none" height="5" stroke="none"/>
            <line clip-path="url(#clipPath1)" fill="none" x1="165" x2="174" y1="376" y2="406" stroke-dasharray="none" stroke="rgb(0,0,139)"/>
            <rect x="172" y="404" clip-path="url(#clipPath1)" fill="rgb(0,0,139)" width="5" stroke-dasharray="none" height="5" stroke="none"/>
            <line clip-path="url(#clipPath1)" fill="none" x1="174" x2="183" y1="406" y2="355" stroke-dasharray="none" stroke="rgb(0,0,139)"/>
            <rect x="181" y="353" clip-path="url(#clipPath1)" fill="rgb(0,0,139)" width="5" stroke-dasharray="none" height="5" stroke="none"/>
            <line clip-path="url(#clipPath1)" fill="none" x1="183" x2="191" y1="355" y2="312" stroke-dasharray="none" stroke="rgb(0,0,139)"/>
            <rect x="189" y="310" clip-path="url(#clipPath1)" fill="rgb(0,0,139)" width="5" stroke-dasharray="none" height="5" stroke="none"/>
            <line clip-path="url(#clipPath1)" fill="none" x1="191" x2="200" y1="312" y2="278" stroke-dasharray="none" stroke="rgb(0,0,139)"/>
            <rect x="198" y="276" clip-path="url(#clipPath1)" fill="rgb(0,0,139)" width="5" stroke-dasharray="none" height="5" stroke="none"/>
            <line clip-path="url(#clipPath1)" fill="none" x1="200" x2="209" y1="278" y2="247" stroke-dasharray="none" stroke="rgb(0,0,139)"/>
            <rect x="207" y="245" clip-path="url(#clipPath1)" fill="rgb(0,0,139)" width="5" stroke-dasharray="none" height="5" stroke="none"/>
            <line clip-path="url(#clipPath1)" fill="none" x1="209" x2="217" y1="247" y2="199" stroke-dasharray="none" stroke="rgb(0,0,139)"/>
            <rect x="215" y="197" clip-path="url(#clipPath1)" fill="rgb(0,0,139)" width="5" stroke-dasharray="none" height="5" stroke="none"/>
            <line clip-path="url(#clipPath1)" fill="none" x1="217" x2="226" y1="199" y2="165" stroke-dasharray="none" stroke="rgb(0,0,139)"/>
            <rect x="224" y="163" clip-path="url(#clipPath1)" fill="rgb(0,0,139)" width="5" stroke-dasharray="none" height="5" stroke="none"/>
            <line clip-path="url(#clipPath1)" fill="none" x1="226" x2="234" y1="165" y2="151" stroke-dasharray="none" stroke="rgb(0,0,139)"/>
            <rect x="232" y="149" clip-path="url(#clipPath1)" fill="rgb(0,0,139)" width="5" stroke-dasharray="none" height="5" stroke="none"/>
            <line clip-path="url(#clipPath1)" fill="none" x1="234" x2="243" y1="151" y2="236" stroke-dasharray="none" stroke="rgb(0,0,139)"/>
            <rect x="241" y="234" clip-path="url(#clipPath1)" fill="rgb(0,0,139)" width="5" stroke-dasharray="none" height="5" stroke="none"/>
            <line clip-path="url(#clipPath1)" fill="none" x1="243" x2="252" y1="236" y2="291" stroke-dasharray="none" stroke="rgb(0,0,139)"/>
            <rect x="250" y="289" clip-path="url(#clipPath1)" fill="rgb(0,0,139)" width="5" stroke-dasharray="none" height="5" stroke="none"/>
            <line clip-path="url(#clipPath1)" fill="none" x1="252" x2="260" y1="291" y2="386" stroke-dasharray="none" stroke="rgb(0,0,139)"/>
            <rect x="258" y="384" clip-path="url(#clipPath1)" fill="rgb(0,0,139)" width="5" stroke-dasharray="none" height="5" stroke="none"/>
            <line clip-path="url(#clipPath1)" fill="none" x1="260" x2="269" y1="386" y2="353" stroke-dasharray="none" stroke="rgb(0,0,139)"/>
            <rect x="267" y="351" clip-path="url(#clipPath1)" fill="rgb(0,0,139)" width="5" stroke-dasharray="none" height="5" stroke="none"/>
            <line clip-path="url(#clipPath1)" fill="none" x1="269" x2="278" y1="353" y2="314" stroke-dasharray="none" stroke="rgb(0,0,139)"/>
            <rect x="276" y="312" clip-path="url(#clipPath1)" fill="rgb(0,0,139)" width="5" stroke-dasharray="none" height="5" stroke="none"/>
            <line clip-path="url(#clipPath1)" fill="none" x1="278" x2="286" y1="314" y2="266" stroke-dasharray="none" stroke="rgb(0,0,139)"/>
            <rect x="284" y="264" clip-path="url(#clipPath1)" fill="rgb(0,0,139)" width="5" stroke-dasharray="none" height="5" stroke="none"/>
            <line clip-path="url(#clipPath1)" fill="none" x1="286" x2="295" y1="266" y2="235" stroke-dasharray="none" stroke="rgb(0,0,139)"/>
            <rect x="293" y="233" clip-path="url(#clipPath1)" fill="rgb(0,0,139)" width="5" stroke-dasharray="none" height="5" stroke="none"/>
            <line clip-path="url(#clipPath1)" fill="none" x1="295" x2="304" y1="235" y2="203" stroke-dasharray="none" stroke="rgb(0,0,139)"/>
            <rect x="302" y="201" clip-path="url(#clipPath1)" fill="rgb(0,0,139)" width="5" stroke-dasharray="none" height="5" stroke="none"/>
            <line clip-path="url(#clipPath1)" fill="none" x1="304" x2="312" y1="203" y2="177" stroke-dasharray="none" stroke="rgb(0,0,139)"/>
            <rect x="310" y="175" clip-path="url(#clipPath1)" fill="rgb(0,0,139)" width="5" stroke-dasharray="none" height="5" stroke="none"/>
            <line clip-path="url(#clipPath1)" fill="none" x1="312" x2="321" y1="177" y2="177" stroke-dasharray="none" stroke="rgb(0,0,139)"/>
            <rect x="319" y="175" clip-path="url(#clipPath1)" fill="rgb(0,0,139)" width="5" stroke-dasharray="none" height="5" stroke="none"/>
            <line clip-path="url(#clipPath1)" fill="none" x1="321" x2="329" y1="177" y2="163" stroke-dasharray="none" stroke="rgb(0,0,139)"/>
            <rect x="327" y="161" clip-path="url(#clipPath1)" fill="rgb(0,0,139)" width="5" stroke-dasharray="none" height="5" stroke="none"/>
            <line clip-path="url(#clipPath1)" fill="none" x1="329" x2="338" y1="163" y2="167" stroke-dasharray="none" stroke="rgb(0,0,139)"/>
            <rect x="336" y="165" clip-path="url(#clipPath1)" fill="rgb(0,0,139)" width="5" stroke-dasharray="none" height="5" stroke="none"/>
            <line clip-path="url(#clipPath1)" fill="none" x1="338" x2="347" y1="167" y2="175" stroke-dasharray="none" stroke="rgb(0,0,139)"/>
            <rect x="345" y="173" clip-path="url(#clipPath1)" fill="rgb(0,0,139)" width="5" stroke-dasharray="none" height="5" stroke="none"/>
            <line clip-path="url(#clipPath1)" fill="none" x1="347" x2="355" y1="175" y2="257" stroke-dasharray="none" stroke="rgb(0,0,139)"/>
            <rect x="353" y="255" clip-path="url(#clipPath1)" fill="rgb(0,0,139)" width="5" stroke-dasharray="none" height="5" stroke="none"/>
            <line clip-path="url(#clipPath1)" fill="none" x1="355" x2="364" y1="257" y2="331" stroke-dasharray="none" stroke="rgb(0,0,139)"/>
            <rect x="362" y="329" clip-path="url(#clipPath1)" fill="rgb(0,0,139)" width="5" stroke-dasharray="none" height="5" stroke="none"/>
            <line clip-path="url(#clipPath1)" fill="none" x1="364" x2="373" y1="331" y2="380" stroke-dasharray="none" stroke="rgb(0,0,139)"/>
            <rect x="371" y="378" clip-path="url(#clipPath1)" fill="rgb(0,0,139)" width="5" stroke-dasharray="none" height="5" stroke="none"/>
            <line clip-path="url(#clipPath1)" fill="none" x1="373" x2="381" y1="380" y2="339" stroke-dasharray="none" stroke="rgb(0,0,139)"/>
            <rect x="379" y="337" clip-path="url(#clipPath1)" fill="rgb(0,0,139)" width="5" stroke-dasharray="none" height="5" stroke="none"/>
            <line clip-path="url(#clipPath1)" fill="none" x1="381" x2="390" y1="339" y2="310" stroke-dasharray="none" stroke="rgb(0,0,139)"/>
            <rect x="388" y="308" clip-path="url(#clipPath1)" fill="rgb(0,0,139)" width="5" stroke-dasharray="none" height="5" stroke="none"/>
            <line clip-path="url(#clipPath1)" fill="none" x1="390" x2="398" y1="310" y2="276" stroke-dasharray="none" stroke="rgb(0,0,139)"/>
            <rect x="396" y="274" clip-path="url(#clipPath1)" fill="rgb(0,0,139)" width="5" stroke-dasharray="none" height="5" stroke="none"/>
            <line clip-path="url(#clipPath1)" fill="none" x1="398" x2="407" y1="276" y2="239" stroke-dasharray="none" stroke="rgb(0,0,139)"/>
            <rect x="405" y="237" clip-path="url(#clipPath1)" fill="rgb(0,0,139)" width="5" stroke-dasharray="none" height="5" stroke="none"/>
            <line clip-path="url(#clipPath1)" fill="none" x1="407" x2="416" y1="239" y2="208" stroke-dasharray="none" stroke="rgb(0,0,139)"/>
            <rect x="414" y="206" clip-path="url(#clipPath1)" fill="rgb(0,0,139)" width="5" stroke-dasharray="none" height="5" stroke="none"/>
            <line clip-path="url(#clipPath1)" fill="none" x1="416" x2="424" y1="208" y2="164" stroke-dasharray="none" stroke="rgb(0,0,139)"/>
            <rect x="422" y="162" clip-path="url(#clipPath1)" fill="rgb(0,0,139)" width="5" stroke-dasharray="none" height="5" stroke="none"/>
            <line clip-path="url(#clipPath1)" fill="none" x1="424" x2="433" y1="164" y2="154" stroke-dasharray="none" stroke="rgb(0,0,139)"/>
            <rect x="431" y="152" clip-path="url(#clipPath1)" fill="rgb(0,0,139)" width="5" stroke-dasharray="none" height="5" stroke="none"/>
            <line clip-path="url(#clipPath1)" fill="none" x1="433" x2="442" y1="154" y2="232" stroke-dasharray="none" stroke="rgb(0,0,139)"/>
            <rect x="440" y="230" clip-path="url(#clipPath1)" fill="rgb(0,0,139)" width="5" stroke-dasharray="none" height="5" stroke="none"/>
            <line clip-path="url(#clipPath1)" fill="none" x1="442" x2="450" y1="232" y2="322" stroke-dasharray="none" stroke="rgb(0,0,139)"/>
            <rect x="448" y="320" clip-path="url(#clipPath1)" fill="rgb(0,0,139)" width="5" stroke-dasharray="none" height="5" stroke="none"/>
            <line clip-path="url(#clipPath1)" fill="none" x1="450" x2="459" y1="322" y2="387" stroke-dasharray="none" stroke="rgb(0,0,139)"/>
            <rect x="457" y="385" clip-path="url(#clipPath1)" fill="rgb(0,0,139)" width="5" stroke-dasharray="none" height="5" stroke="none"/>
            <line clip-path="url(#clipPath1)" fill="none" x1="459" x2="468" y1="387" y2="356" stroke-dasharray="none" stroke="rgb(0,0,139)"/>
            <rect x="466" y="354" clip-path="url(#clipPath1)" fill="rgb(0,0,139)" width="5" stroke-dasharray="none" height="5" stroke="none"/>
            <line clip-path="url(#clipPath1)" fill="none" x1="468" x2="476" y1="356" y2="323" stroke-dasharray="none" stroke="rgb(0,0,139)"/>
            <rect x="474" y="321" clip-path="url(#clipPath1)" fill="rgb(0,0,139)" width="5" stroke-dasharray="none" height="5" stroke="none"/>
            <line clip-path="url(#clipPath1)" fill="none" x1="476" x2="485" y1="323" y2="273" stroke-dasharray="none" stroke="rgb(0,0,139)"/>
            <rect x="483" y="271" clip-path="url(#clipPath1)" fill="rgb(0,0,139)" width="5" stroke-dasharray="none" height="5" stroke="none"/>
            <line clip-path="url(#clipPath1)" fill="none" x1="485" x2="493" y1="273" y2="235" stroke-dasharray="none" stroke="rgb(0,0,139)"/>
            <rect x="491" y="233" clip-path="url(#clipPath1)" fill="rgb(0,0,139)" width="5" stroke-dasharray="none" height="5" stroke="none"/>
            <line clip-path="url(#clipPath1)" fill="none" x1="493" x2="502" y1="235" y2="181" stroke-dasharray="none" stroke="rgb(0,0,139)"/>
            <rect x="500" y="179" clip-path="url(#clipPath1)" fill="rgb(0,0,139)" width="5" stroke-dasharray="none" height="5" stroke="none"/>
            <line clip-path="url(#clipPath1)" fill="none" x1="502" x2="511" y1="181" y2="153" stroke-dasharray="none" stroke="rgb(0,0,139)"/>
            <rect x="509" y="151" clip-path="url(#clipPath1)" fill="rgb(0,0,139)" width="5" stroke-dasharray="none" height="5" stroke="none"/>
            <line clip-path="url(#clipPath1)" fill="none" x1="511" x2="519" y1="153" y2="173" stroke-dasharray="none" stroke="rgb(0,0,139)"/>
            <rect x="517" y="171" clip-path="url(#clipPath1)" fill="rgb(0,0,139)" width="5" stroke-dasharray="none" height="5" stroke="none"/>
            <line clip-path="url(#clipPath1)" fill="none" x1="519" x2="528" y1="173" y2="176" stroke-dasharray="none" stroke="rgb(0,0,139)"/>
            <rect x="526" y="174" clip-path="url(#clipPath1)" fill="rgb(0,0,139)" width="5" stroke-dasharray="none" height="5" stroke="none"/>
            <line clip-path="url(#clipPath1)" fill="none" x1="528" x2="537" y1="176" y2="151" stroke-dasharray="none" stroke="rgb(0,0,139)"/>
            <rect x="535" y="149" clip-path="url(#clipPath1)" fill="rgb(0,0,139)" width="5" stroke-dasharray="none" height="5" stroke="none"/>
            <line clip-path="url(#clipPath1)" fill="none" x1="537" x2="545" y1="151" y2="188" stroke-dasharray="none" stroke="rgb(0,0,139)"/>
            <rect x="543" y="186" clip-path="url(#clipPath1)" fill="rgb(0,0,139)" width="5" stroke-dasharray="none" height="5" stroke="none"/>
            <line clip-path="url(#clipPath1)" fill="none" x1="545" x2="554" y1="188" y2="253" stroke-dasharray="none" stroke="rgb(0,0,139)"/>
            <rect x="552" y="251" clip-path="url(#clipPath1)" fill="rgb(0,0,139)" width="5" stroke-dasharray="none" height="5" stroke="none"/>
            <line clip-path="url(#clipPath1)" fill="none" x1="554" x2="563" y1="253" y2="348" stroke-dasharray="none" stroke="rgb(0,0,139)"/>
            <rect x="561" y="346" clip-path="url(#clipPath1)" fill="rgb(0,0,139)" width="5" stroke-dasharray="none" height="5" stroke="none"/>
            <line clip-path="url(#clipPath1)" fill="none" x1="563" x2="571" y1="348" y2="386" stroke-dasharray="none" stroke="rgb(0,0,139)"/>
            <rect x="569" y="384" clip-path="url(#clipPath1)" fill="rgb(0,0,139)" width="5" stroke-dasharray="none" height="5" stroke="none"/>
            <rect x="45" y="42" clip-path="url(#clipPath2)" fill="none" width="518" stroke-dasharray="none" height="436" stroke="black"/>
        </g>
        <g text-rendering="geometricPrecision" font-size="16" stroke-linecap="butt">
            <text xml:space="preserve" x="114" y="15" clip-path="url(#clipPath2)" stroke="none">Speed of lead vehicle on large octagonal ring</text>
            <line clip-path="url(#clipPath2)" fill="none" x1="45" x2="563" y1="40" y2="40"/>
            <line clip-path="url(#clipPath2)" fill="none" x1="45" x2="563" y1="480" y2="480"/>
            <text xml:space="preserve" x="272" y="516" clip-path="url(#clipPath2)" stroke="none">Time (s)</text>
            <line clip-path="url(#clipPath2)" fill="none" x1="45" x2="45" y1="36" y2="40"/>
            <line clip-path="url(#clipPath2)" fill="none" x1="45" x2="45" y1="484" y2="480"/>
            <text x="44" font-size="10" y="33" clip-path="url(#clipPath2)" stroke="none" xml:space="preserve">0</text>
            <text x="44" font-size="10" y="495" clip-path="url(#clipPath2)" stroke="none" xml:space="preserve">0</text>
            <line clip-path="url(#clipPath2)" fill="none" x1="62" x2="62" y1="38" y2="40"/>
            <line clip-path="url(#clipPath2)" fill="none" x1="62" x2="62" y1="482" y2="480"/>
            <line clip-path="url(#clipPath2)" fill="none" x1="79" x2="79" y1="38" y2="40"/>
            <line clip-path="url(#clipPath2)" fill="none" x1="79" x2="79" y1="482" y2="480"/>
            <line clip-path="url(#clipPath2)" fill="none" x1="96" x2="96" y1="38" y2="40"/>
            <line clip-path="url(#clipPath2)" fill="none" x1="96" x2="96" y1="482" y2="480"/>
            <line clip-path="url(#clipPath2)" fill="none" x1="114" x2="114" y1="38" y2="40"/>
            <line clip-path="url(#clipPath2)" fill="none" x1="114" x2="114" y1="482" y2="480"/>
            <line clip-path="url(#clipPath2)" fill="none" x1="131" x2="131" y1="36" y2="40"/>
            <line clip-path="url(#clipPath2)" fill="none" x1="131" x2="131" y1="484" y2="480"/>
            <text x="127" font-size="10" y="33" clip-path="url(#clipPath2)" stroke="none" xml:space="preserve">10</text>
            <text x="127" font-size="10" y="495" clip-path="url(#clipPath2)" stroke="none" xml:space="preserve">10</text>
            <line clip-path="url(#clipPath2)" fill="none" x1="148" x2="148" y1="38" y2="40"/>
            <line clip-path="url(#clipPath2)" fill="none" x1="148" x2="148" y1="482" y2="480"/>
            <line clip-path="url(#clipPath2)" fill="none" x1="165" x2="165" y1="38" y2="40"/>
            <line clip-path="url(#clipPath2)" fill="none" x1="165" x2="165" y1="482" y2="480"/>
            <line clip-path="url(#clipPath2)" fill="none" x1="183" x2="183" y1="38" y2="40"/>
            <line clip-path="url(#clipPath2)" fill="none" x1="183" x2="183" y1="482" y2="480"/>
            <line clip-path="url(#clipPath2)" fill="none" x1="200" x2="200" y1="38" y2="40"/>
            <line clip-path="url(#clipPath2)" fill="none" x1="200" x2="200" y1="482" y2="480"/>
            <line clip-path="url(#clipPath2)" fill="none" x1="217" x2="217" y1="36" y2="40"/>
            <line clip-path="url(#clipPath2)" fill="none" x1="217" x2="217" y1="484" y2="480"/>
            <text x="213" font-size="10" y="33" clip-path="url(#clipPath2)" stroke="none" xml:space="preserve">20</text>
            <text x="213" font-size="10" y="495" clip-path="url(#clipPath2)" stroke="none" xml:space="preserve">20</text>
            <line clip-path="url(#clipPath2)" fill="none" x1="234" x2="234" y1="38" y2="40"/>
            <line clip-path="url(#clipPath2)" fill="none" x1="234" x2="234" y1="482" y2="480"/>
            <line clip-path="url(#clipPath2)" fill="none" x1="252" x2="252" y1="38" y2="40"/>
            <line clip-path="url(#clipPath2)" fill="none" x1="252" x2="252" y1="482" y2="480"/>
            <line clip-path="url(#clipPath2)" fill="none" x1="269" x2="269" y1="38" y2="40"/>
            <line clip-path="url(#clipPath2)" fill="none" x1="269" x2="269" y1="482" y2="480"/>
            <line clip-path="url(#clipPath2)" fill="none" x1="286" x2="286" y1="38" y2="40"/>
            <line clip-path="url(#clipPath2)" fill="none" x1="286" x2="286" y1="482" y2="480"/>
            <line clip-path="url(#clipPath2)" fill="none" x1="304" x2="304" y1="36" y2="40"/>
            <line clip-path="url(#clipPath2)" fill="none" x1="304" x2="304" y1="484" y2="480"/>
            <text x="300" font-size="10" y="33" clip-path="url(#clipPath2)" stroke="none" xml:space="preserve">30</text>
            <text x="300" font-size="10" y="495" clip-path="url(#clipPath2)" stroke="none" xml:space="preserve">30</text>
            <line clip-path="url(#clipPath2)" fill="none" x1="321" x2="321" y1="38" y2="40"/>
            <line clip-path="url(#clipPath2)" fill="none" x1="321" x2="321" y1="482" y2="480"/>
            <line clip-path="url(#clipPath2)" fill="none" x1="338" x2="338" y1="38" y2="40"/>
            <line clip-path="url(#clipPath2)" fill="none" x1="338" x2="338" y1="482" y2="480"/>
            <line clip-path="url(#clipPath2)" fill="none" x1="355" x2="355" y1="38" y2="40"/>
            <line clip-path="url(#clipPath2)" fill="none" x1="355" x2="355" y1="482" y2="480"/>
            <line clip-path="url(#clipPath2)" fill="none" x1="373" x2="373" y1="38" y2="40"/>
            <line clip-path="url(#clipPath2)" fill="none" x1="373" x2="373" y1="482" y2="480"/>
            <line clip-path="url(#clipPath2)" fill="none" x1="390" x2="390" y1="36" y2="40"/>
            <line clip-path="url(#clipPath2)" fill="none" x1="390" x2="390" y1="484" y2="480"/>
            <text x="386" font-size="10" y="33" clip-path="url(#clipPath2)" stroke="none" xml:space="preserve">40</text>
            <text x="386" font-size="10" y="495" clip-path="url(#clipPath2)" stroke="none" xml:space="preserve">40</text>
            <line clip-path="url(#clipPath2)" fill="none" x1="407" x2="407" y1="38" y2="40"/>
            <line clip-path="url(#clipPath2)" fill="none" x1="407" x2="407" y1="482" y2="480"/>
            <line clip-path="url(#clipPath2)" fill="none" x1="424" x2="424" y1="38" y2="40"/>
            <line clip-path="url(#clipPath2)" fill="none" x1="424" x2="424" y1="482" y2="480"/>
            <line clip-path="url(#clipPath2)" fill="none" x1="442" x2="442" y1="38" y2="40"/>
            <line clip-path="url(#clipPath2)" fill="none" x1="442" x2="442" y1="482" y2="480"/>
            <line clip-path="url(#clipPath2)" fill="none" x1="459" x2="459" y1="38" y2="40"/>
            <line clip-path="url(#clipPath2)" fill="none" x1="459" x2="459" y1="482" y2="480"/>
            <line clip-path="url(#clipPath2)" fill="none" x1="476" x2="476" y1="36" y2="40"/>
            <line clip-path="url(#clipPath2)" fill="none" x1="476" x2="476" y1="484" y2="480"/>
            <text x="472" font-size="10" y="33" clip-path="url(#clipPath2)" stroke="none" xml:space="preserve">50</text>
            <text x="472" font-size="10" y="495" clip-path="url(#clipPath2)" stroke="none" xml:space="preserve">50</text>
            <line clip-path="url(#clipPath2)" fill="none" x1="493" x2="493" y1="38" y2="40"/>
            <line clip-path="url(#clipPath2)" fill="none" x1="493" x2="493" y1="482" y2="480"/>
            <line clip-path="url(#clipPath2)" fill="none" x1="511" x2="511" y1="38" y2="40"/>
            <line clip-path="url(#clipPath2)" fill="none" x1="511" x2="511" y1="482" y2="480"/>
            <line clip-path="url(#clipPath2)" fill="none" x1="528" x2="528" y1="38" y2="40"/>
            <line clip-path="url(#clipPath2)" fill="none" x1="528" x2="528" y1="482" y2="480"/>
            <line clip-path="url(#clipPath2)" fill="none" x1="545" x2="545" y1="38" y2="40"/>
            <line clip-path="url(#clipPath2)" fill="none" x1="545" x2="545" y1="482" y2="480"/>
            <line clip-path="url(#clipPath2)" fill="none" x1="43" x2="43" y1="42" y2="478"/>
            <line clip-path="url(#clipPath2)" fill="none" x1="565" x2="565" y1="42" y2="478"/>
            <line clip-path="url(#clipPath2)" fill="none" x1="39" x2="43" y1="478" y2="478"/>
            <line clip-path="url(#clipPath2)" fill="none" x1="569" x2="565" y1="478" y2="478"/>
            <text x="33" font-size="10" y="482" clip-path="url(#clipPath2)" stroke="none" xml:space="preserve">0</text>
            <text x="572" font-size="10" y="482" clip-path="url(#clipPath2)" stroke="none" xml:space="preserve">0</text>
            <line clip-path="url(#clipPath2)" fill="none" x1="41" x2="43" y1="456" y2="456"/>
            <line clip-path="url(#clipPath2)" fill="none" x1="567" x2="565" y1="456" y2="456"/>
            <line clip-path="url(#clipPath2)" fill="none" x1="41" x2="43" y1="435" y2="435"/>
            <line clip-path="url(#clipPath2)" fill="none" x1="567" x2="565" y1="435" y2="435"/>
            <line clip-path="url(#clipPath2)" fill="none" x1="41" x2="43" y1="414" y2="414"/>
            <line clip-path="url(#clipPath2)" fill="none" x1="567" x2="565" y1="414" y2="414"/>
            <line clip-path="url(#clipPath2)" fill="none" x1="41" x2="43" y1="393" y2="393"/>
            <line clip-path="url(#clipPath2)" fill="none" x1="567" x2="565" y1="393" y2="393"/>
            <line clip-path="url(#clipPath2)" fill="none" x1="39" x2="43" y1="372" y2="372"/>
            <line clip-path="url(#clipPath2)" fill="none" x1="569" x2="565" y1="372" y2="372"/>
            <text x="33" font-size="10" y="376" clip-path="url(#clipPath2)" stroke="none" xml:space="preserve">5</text>
            <text x="572" font-size="10" y="376" clip-path="url(#clipPath2)" stroke="none" xml:space="preserve">5</text>
            <line clip-path="url(#clipPath2)" fill="none" x1="41" x2="43" y1="351" y2="351"/>
            <line clip-path="url(#clipPath2)" fill="none" x1="567" x2="565" y1="351" y2="351"/>
            <line clip-path="url(#clipPath2)" fill="none" x1="41" x2="43" y1="330" y2="330"/>
            <line clip-path="url(#clipPath2)" fill="none" x1="567" x2="565" y1="330" y2="330"/>
            <line clip-path="url(#clipPath2)" fill="none" x1="41" x2="43" y1="309" y2="309"/>
            <line clip-path="url(#clipPath2)" fill="none" x1="567" x2="565" y1="309" y2="309"/>
            <line clip-path="url(#clipPath2)" fill="none" x1="41" x2="43" y1="288" y2="288"/>
            <line clip-path="url(#clipPath2)" fill="none" x1="567" x2="565" y1="288" y2="288"/>
            <line clip-path="url(#clipPath2)" fill="none" x1="39" x2="43" y1="266" y2="266"/>
            <line clip-path="url(#clipPath2)" fill="none" x1="569" x2="565" y1="266" y2="266"/>
            <text x="28" font-size="10" y="270" clip-path="url(#clipPath2)" stroke="none" xml:space="preserve">10</text>
            <text x="572" font-size="10" y="270" clip-path="url(#clipPath2)" stroke="none" xml:space="preserve">10</text>
            <line clip-path="url(#clipPath2)" fill="none" x1="41" x2="43" y1="245" y2="245"/>
            <line clip-path="url(#clipPath2)" fill="none" x1="567" x2="565" y1="245" y2="245"/>
            <line clip-path="url(#clipPath2)" fill="none" x1="41" x2="43" y1="224" y2="224"/>
            <line clip-path="url(#clipPath2)" fill="none" x1="567" x2="565" y1="224" y2="224"/>
            <line clip-path="url(#clipPath2)" fill="none" x1="41" x2="43" y1="203" y2="203"/>
            <line clip-path="url(#clipPath2)" fill="none" x1="567" x2="565" y1="203" y2="203"/>
            <line clip-path="url(#clipPath2)" fill="none" x1="41" x2="43" y1="182" y2="182"/>
            <line clip-path="url(#clipPath2)" fill="none" x1="567" x2="565" y1="182" y2="182"/>
            <line clip-path="url(#clipPath2)" fill="none" x1="39" x2="43" y1="161" y2="161"/>
            <line clip-path="url(#clipPath2)" fill="none" x1="569" x2="565" y1="161" y2="161"/>
            <text x="28" font-size="10" y="165" clip-path="url(#clipPath2)" stroke="none" xml:space="preserve">15</text>
            <text x="572" font-size="10" y="165" clip-path="url(#clipPath2)" stroke="none" xml:space="preserve">15</text>
            <line clip-path="url(#clipPath2)" fill="none" x1="41" x2="43" y1="140" y2="140"/>
            <line clip-path="url(#clipPath2)" fill="none" x1="567" x2="565" y1="140" y2="140"/>
            <line clip-path="url(#clipPath2)" fill="none" x1="41" x2="43" y1="119" y2="119"/>
            <line clip-path="url(#clipPath2)" fill="none" x1="567" x2="565" y1="119" y2="119"/>
            <line clip-path="url(#clipPath2)" fill="none" x1="41" x2="43" y1="98" y2="98"/>
            <line clip-path="url(#clipPath2)" fill="none" x1="567" x2="565" y1="98" y2="98"/>
            <line clip-path="url(#clipPath2)" fill="none" x1="41" x2="43" y1="77" y2="77"/>
            <line clip-path="url(#clipPath2)" fill="none" x1="567" x2="565" y1="77" y2="77"/>
            <line clip-path="url(#clipPath2)" fill="none" x1="39" x2="43" y1="55" y2="55"/>
            <line clip-path="url(#clipPath2)" fill="none" x1="569" x2="565" y1="55" y2="55"/>
            <text x="28" font-size="10" y="59" clip-path="url(#clipPath2)" stroke="none" xml:space="preserve">20</text>
            <text x="572" font-size="10" y="59" clip-path="url(#clipPath2)" stroke="none" xml:space="preserve">20</text>
        </g>
    </g>
</svg>
